# OBJ written from D:\programming stuff\twentysixteen\twentysixteen\data\models\testchamber.obj
# Units	meters

o Mesh
v -1.43 -1.1 -2.75
v -1.43 1.11 -2.75
v 1.46 1.11 -2.75
v 1.46 -1.1 -2.75
v -1.43 -1.1 -2.2061
v -1.43 1.11 -2.2061
v 1.46 1.11 -2.2061
v 1.46 -1.1 -2.2061
v -1.67 -1.1 -2.2061
v -1.67 1.11 -2.2061
v -1.67 1.11 -2.75
v -1.67 -1.1 -2.75
v 1.7 1.11 -2.2061
v 1.7 -1.1 -2.2061
v 1.7 -1.1 -2.75
v 1.7 1.11 -2.75
v -1.43 -0.54 -2.75
v 1.46 -0.54 -2.75
v -1.43 -0.54 -2.2061
v 1.46 -0.54 -2.2061
v -1.67 -0.54 -2.2061
v -1.67 -0.54 -2.75
v 1.7 -0.54 -2.2061
v 1.7 -0.54 -2.75
v -1.43 -0.8 -2.75
v 1.46 -0.8 -2.75
v 1.46 -0.8 -2.2061
v -1.43 -0.8 -2.2061
v -1.67 -0.8 -2.2061
v -1.67 -0.8 -2.75
v 1.7 -0.8 -2.2061
v 1.7 -0.8 -2.75
v -1.43 1.35 -2.2061
v 1.46 1.35 -2.2061
v 1.46 1.35 -2.75
v -1.43 1.35 -2.75
v -1.67 1.35 -2.2061
v -1.67 1.35 -2.75
v 1.7 1.35 -2.75
v 1.7 1.35 -2.2061
v -1.43 1.11 1.2339
v -1.67 1.11 1.2339
v -1.67 -0.54 1.2339
v -1.43 -0.54 1.2339
v 1.46 1.11 1.2339
v 1.46 -0.54 1.2339
v 1.7 -0.54 1.2339
v 1.7 1.11 1.2339
v 1.46 -1.1 1.2339
v 1.46 -0.8 1.2339
v -1.43 -0.8 1.2339
v -1.43 -1.1 1.2339
v -1.67 -0.8 1.2339
v -1.67 -1.1 1.2339
v 1.7 -0.8 1.2339
v 1.7 -1.1 1.2339
v 1.7 -1.1 0.69
v 1.7 -0.8 0.69
v -1.43 1.35 1.2339
v 1.46 1.35 1.2339
v -1.67 1.35 1.2339
v 1.7 1.35 1.2339
v -0.13 -0.8 1.2339
v -0.13 -0.8 -2.2061
v 0.205 -0.8 -2.2061
v 0.205 -0.8 1.2339
v -1.43 -0.54 -0.7
v -1.43 1.06 -0.7
v -1.67 -0.54 -0.7
v -1.67 1.06 -0.7
v 1.46 -0.54 -0.7
v 1.46 1.06 -0.7
v 1.7 -0.54 -0.7
v 1.7 1.06 -0.7
v -1.43 -1.1 -0.7
v 1.46 -1.1 -0.7
v -1.67 -0.8 -0.7
v -1.43 -0.8 -0.7
v -1.67 -1.1 -0.7
v 1.7 -0.8 -0.7
v 1.46 -0.8 -0.7
v 1.7 -1.1 -0.7
v -0.088125 -0.8 -0.5925
v 0.163125 -0.8 -0.5925
v 1.7 -1.1 0.16
v 1.7 -0.8 0.16
v 1.46 1.35 0.16
v -1.43 1.35 0.16
v -1.43 1.11 0.16
v 1.46 1.11 0.16
v -1.67 1.35 0.16
v -1.67 1.11 0.16
v 1.7 1.35 0.16
v 1.7 1.11 0.16
v -1.43 -0.54 0.16
v -1.67 -0.54 0.16
v 1.46 -0.54 0.16
v 1.7 -0.54 0.16
v -1.43 -1.1 0.16
v 1.46 -1.1 0.16
v -1.67 -0.8 0.16
v -1.43 -0.8 0.16
v -1.67 -1.1 0.16
v 1.46 -0.8 0.16
v -0.088125 -0.8 0.0525
v 0.163125 -0.8 0.0525
v -0.098125 -0.385 -0.5925
v -0.098125 -0.385 0.0525002
v 0.153125 -0.385 0.0525002
v 0.153125 -0.385 -0.5925
v -0.12075 -0.18825 -0.595899
v -0.12075 -0.18825 0.0558993
v 0.15825 -0.18825 0.0558993
v 0.15825 -0.18825 -0.595899
v -0.133111 -0.0991111 -0.52299
v -0.133111 -0.0991111 -0.01701
v 0.168111 -0.0991111 -0.01701
v 0.168111 -0.0991111 -0.52299
v 0.158125 -0.575 -0.5925
v 0.0375 -0.8 -0.7
v -0.093125 -0.575 -0.5925
v 0.0275 -0.385 -0.7
v 0.0325 -0.575 -0.7
v -0.13 -0.8 -0.27
v -0.093125 -0.575 0.0525002
v -0.14 -0.385 -0.27
v -0.135 -0.575 -0.27
v 0.0375 -0.8 0.16
v 0.158125 -0.575 0.0525002
v 0.0275 -0.385 0.16
v 0.0325 -0.575 0.16
v 0.205 -0.8 -0.27
v 0.195 -0.385 -0.27
v 0.2 -0.575 -0.27
v 0.148125 -0.265 -0.5925
v -0.103125 -0.265 -0.5925
v 0.01875 -0.18825 -0.704533
v 0.0225 -0.265 -0.7
v -0.103125 -0.265 0.0525002
v -0.16725 -0.18825 -0.27
v -0.145 -0.265 -0.27
v 0.148125 -0.265 0.0525002
v 0.01875 -0.18825 0.164533
v 0.0225 -0.265 0.16
v 0.20475 -0.18825 -0.27
v 0.19 -0.265 -0.27
v 0.198625 -0.128 -0.606097
v 0.235625 -0.089 -0.27
v 0.198625 -0.128 0.0660975
v 0.259 -0.128 -0.27
v -0.163625 -0.128 -0.606097
v 0.0175 -0.089 -0.615163
v 0.0175 -0.128 -0.71813
v -0.163625 -0.128 0.0660975
v -0.200625 -0.089 -0.27
v -0.224 -0.128 -0.27
v 0.0175 -0.089 0.0751626
v 0.0175 -0.128 0.17813
v 0.0175 -0.076 -0.27
vn 0 -1 0
vn 0 8.10947e-008 -0.245
vn 0 0 -0.245
vn 0 0 0.245
vn -1 0 0
vn 1 0 0
vn 0 1.62189e-007 -0.245
vn 0 1 0
vn 2.22095e-008 1 0
vn 1.48063e-008 1 7.39086e-010
vn 0 1 1.10863e-009
vn -2.02092e-008 1 -2.80135e-009
vn -3.03139e-008 1 -5.31066e-009
vn 0 1 -3.02841e-009
vn 1.48063e-008 1 -2.01894e-009
vn 2.22095e-008 1 -1.51421e-009
vn -2.02092e-008 1 -4.54991e-009
vn 0 1 -1.51421e-009
vn 0.987404 0.0335612 -0.0378811
vn 0.987677 0.0239699 -0.0378913
vn 0.961111 0.0233252 -0.0674177
vn 0.96086 0.032659 -0.0674001
vn 0.987723 0.0219494 -0.037893
vn 0.961154 0.021359 -0.0674207
vn -0.961111 -0.0233251 -0.0674177
vn -0.961154 -0.021359 -0.0674207
vn -0.987723 -0.0219494 -0.037893
vn -0.987677 -0.0239699 -0.0378913
vn -0.96086 -0.0326591 -0.0674001
vn -0.987404 -0.0335612 -0.0378811
vn -0.999706 -0.0242618 -2.2829e-010
vn -0.999423 -0.0339697 -2.28296e-010
vn -0.999753 -0.0222167 0
vn -0.987723 -0.02195 0.037893
vn -0.987677 -0.0239702 0.0378913
vn -0.987404 -0.0335612 0.0378811
vn -0.961111 -0.0233257 0.0674177
vn -0.96086 -0.0326591 0.0674001
vn -0.961154 -0.0213601 0.0674207
vn 0.961111 0.0233251 0.0674177
vn 0.961154 0.021359 0.0674207
vn 0.987723 0.0219494 0.037893
vn 0.987677 0.0239698 0.0378913
vn 0.96086 0.0326591 0.0674001
vn 0.987404 0.0335612 0.0378811
vn 0.999706 0.0242618 0
vn 0.999423 0.0339696 0
vn 0.999753 0.0222167 0
vn 0.885472 -0.438898 -0.0374038
vn 0.984239 -0.0721085 -0.039561
vn 0.955463 -0.0690238 -0.0702964
vn 0.862908 -0.426248 -0.0665132
vn -0.954727 -0.0791378 -0.070257
vn -0.98088 -0.108545 -0.0395745
vn -0.934279 -0.201803 -0.0720145
vn -0.934622 -0.314326 -0.0407615
vn -0.988879 -0.148719 -2.75767e-005
vn -0.888934 -0.458035 -0.000198263
vn -0.974374 -0.158251 0.0391629
vn -0.859484 -0.489181 0.0363307
vn -0.946534 -0.152825 0.0696066
vn -0.838974 -0.475869 0.0646684
vn 0.957694 0.00715479 0.0704865
vn 0.986556 -0.0204618 0.0397238
vn 0.944772 -0.13804 0.0728233
vn 0.952509 -0.253387 0.0413767
vn 0.998142 -0.0609281 1.83844e-005
vn 0.914468 -0.404658 0.000192156
vn 0.783845 -0.620955 0.000335692
vn 0.893146 -0.419008 0.0400502
vn 0.739359 -0.660997 -0.0314055
vn 0.716297 0.697758 -0.00177803
vn 0.857125 0.513725 -0.00924205
vn 0.387409 0.920105 0.0141205
vn 0.418144 0.908373 -0.000936096
vn 0.280688 0.958885 0.0102608
vn 0.728047 -0.646129 -0.0561181
vn -0.879271 -0.448103 -0.0395698
vn -0.914615 -0.28404 -0.0704988
vn -0.0280626 0.996341 -0.0197776
vn -0.387409 0.920105 -0.0141205
vn -0.296447 0.95402 -0.01086
vn -0.0187426 0.998734 -0.0114344
vn 0.172186 0.982701 -0.0167095
vn 0.131172 0.990602 -0.00949289
vn -0.768108 -0.640319 -0.000332393
vn -0.724476 -0.67775 0.0307867
vn -0.716297 0.697758 0.00177803
vn -0.857125 0.513726 0.00924205
vn -0.42259 0.906316 0.000724907
vn -0.713926 -0.66322 0.0550296
vn 0.923957 -0.248603 0.0712189
vn 0.0280626 0.996341 0.0197776
vn 0.013911 0.998854 0.011221
vn -0.172186 0.982701 0.0167095
vn -0.116068 0.992394 0.0100485
vn -0.24114 0.970447 -0.00224601
vn -0.00476342 0.999988 -0.000194361
vn 0.234848 0.971999 0.0019826
vn 0 1 2.21726e-009
vn 4.44189e-008 1 0
vn 0 1 -3.02841e-009
vn -6.06277e-008 1 -1.06213e-008
vt 0.25 0.666667
vt 0 0.666667
vt 0 0.333333
vt 0.25 0.333333
vt 1 0.333333
vt 1 0.666667
vt 0.5 0.333333
vt 0.313348 0.333333
vt 0.313348 0
vt 0.5 0
vt 1.33056 0.489492
vt -1.23563 0.489542
vt -1.23566 -1.16718
vt 1.33052 -1.16727
vt 0 0
vt 1 0
vt 0.75 0.333333
vt 0.936652 0.333333
vt 0.936652 0.666667
vt 0.75 0.666667
vt 0.5 0.666667
vt 0.313348 0.666667
vt 0.283937 0.333333
vt 0.283937 0
vt 0.25 0
vt 0.167865 0
vt 0.966063 0.333333
vt 0.966063 0.666667
vt 0.283937 0.666667
vt -0.882707 0.349658
vt -0.881499 0.653346
vt -0.938653 0.653574
vt -0.939861 0.349886
vt -0.882807 0.324439
vt -0.939962 0.324666
vt -0.938552 0.678794
vt -0.881398 0.678566
vt -4.2899 0.489478
vt -4.50298 0.489481
vt -4.50302 -1.16706
vt -4.28994 -1.16707
vt -4.50303 -1.4281
vt -4.28994 -1.42811
vt 0 1
vt 1 1
vt -1.23567 -1.42823
vt -0.0813353 -1.42828
vt 0.216129 -1.4283
vt 1.33051 -1.42834
vt 0.25 1
vt 0.283937 0.811419
vt 0.283937 0.850058
vt 0.283937 1
vt 0.43782 0.666667
vt -2.5729 -1.1671
vt -2.57291 -1.42813
vt 2.66796 -1.42847
vt 2.66798 -1.16738
vt 0.59593 0.333333
vt -1.14315 -1.22449
vt -0.142324 -1.22408
vt -0.0909425 -0.0352991
vt -1.16257 -0.0728404
vt -1.18633 1.33572
vt -1.16758 0.223931
vt -0.0946975 0.18728
vt -0.185514 1.33613
vt -0.634072 0.348669
vt -0.632863 0.652357
vt -0.520015 0.651908
vt -0.521224 0.34822
vt 1.3452 -0.301093
vt 1.34845 1.5169
vt -1.24403 1.52186
vt -1.24728 -0.296134
vt 0.68782 1
vt 0.68782 0.666667
vt -0.634172 0.323449
vt -0.521324 0.323
vt -0.632763 0.677577
vt -0.519915 0.677127
vt -3.33647 0.489483
vt -3.33646 -1.16708
vt -2.57288 0.439303
vt 0.68782 0.666667
vt 3.43175 0.489518
vt 2.66803 0.439302
vt 3.43171 -1.16743
vt 4.38548 0.489481
vt 4.3854 -1.16747
vt -3.33646 -1.42811
vt 0.785644 0.460432
vt 3.43169 -1.42852
vt 4.38539 -1.42857
vt 0.84593 0.333333
vt 1.12335 -0.0718863
vt 0.337667 -0.0351201
vt 0.429157 -1.22384
vt 1.14278 -1.22354
vt 1.09958 1.33667
vt 0.385962 1.33637
vt 0.333911 0.187458
vt 1.11834 0.224885
vt 1 0.811419
vt 0.5 0.816249
vt 0.5 0.830738
vt 1 0.830738
vt 0 0.816249
vt 0 0.830738
vt 0 0.845228
vt 0.5 0.845228
vt 1 0.850058
vt 0.5 0.850058
vt 0 0.850058
vt 0.5 0.845228
vt 0.5 0.811419
vt 0 0.811419
vt 0.68782 0.811419
vt 0.56282 0.811419
vt 0.56282 0.816974
vt 0.652404 0.820415
vt 0.43782 0.811419
vt 0.473236 0.820415
vt 0.495664 0.824201
vt 0.56282 0.823192
vt 0.622525 0.823926
vt 0.43782 0.830738
vt 0.443375 0.830738
vt 0.43782 0.850058
vt 0.473236 0.841062
vt 0.497696 0.837151
vt 0.476013 0.830738
vt 0.56282 0.850058
vt 0.56282 0.844503
vt 0.68782 0.850058
vt 0.652404 0.841062
vt 0.636072 0.836851
vt 0.56282 0.838284
vt 0.68782 0.830738
vt 0.682265 0.830738
vt 0.649626 0.830738
vt 0.56282 0.830738
vt -0.164255 0.0759604
vt 0.123988 -0.0723062
vt 0.407224 0.076199
vt 0.118981 0.224465
mtllib testchamber.mtl
usemtl Default
g Default
f 8/1/1 5/2/1 1/3/1 4/4/1
f 12/5/1 1/3/1 5/2/1 9/6/1
f 14/6/1 8/2/1 4/3/1 15/5/1
f 3/7/2 18/8/3 17/9/3 2/10/2
f 7/11/4 6/12/4 19/13/4 20/14/4
f 2/15/2 17/9/3 22/16/3 11/16/2
f 11/17/5 22/18/5 21/19/5 10/20/5
f 3/3/2 16/5/2 24/5/3 18/3/3
f 13/21/6 23/22/6 24/8/6 16/7/6
f 18/8/3 26/23/3 25/24/3 17/9/3
f 1/25/3 25/24/3 26/23/3 4/4/3
f 22/16/3 17/9/3 25/26/3 30/16/3
f 12/16/3 30/16/3 25/26/3 1/15/3
f 22/18/5 30/27/5 29/28/5 21/19/5
f 9/6/5 29/28/5 30/27/5 12/5/5
f 24/5/3 32/5/3 26/3/3 18/3/3
f 4/3/3 26/3/3 32/5/3 15/5/3
f 23/22/6 31/29/6 32/23/6 24/8/6
f 35/5/7 3/3/2 2/15/2 36/16/7
f 38/5/5 11/3/5 10/2/5 37/6/5
f 36/16/7 2/15/2 11/15/2 38/16/7
f 40/6/6 13/2/6 16/3/6 39/5/6
f 39/5/7 16/3/2 3/3/2 35/5/7
f 33/30/8 34/31/8 35/32/8 36/33/8
f 37/34/8 33/30/8 36/33/8 38/35/8
f 39/36/8 35/32/8 34/31/8 40/37/8
f 56/6/8 14/2/8 15/3/8 57/5/8
f 58/5/8 32/3/8 31/2/8 55/6/8
f 41/38/4 42/39/4 43/40/4 44/41/4
f 45/2/4 46/2/4 47/6/4 48/6/4
f 43/40/4 53/42/4 51/43/4 44/41/4
f 52/44/4 51/44/4 53/45/4 54/45/4
f 47/6/4 46/2/4 50/2/4 55/6/4
f 56/6/4 55/6/4 50/2/4 49/2/4
f 57/4/6 58/23/6 55/29/6 56/1/6
f 59/45/4 41/44/4 45/2/4 60/6/4
f 61/45/4 42/44/4 41/44/4 59/45/4
f 60/6/4 45/2/4 48/2/4 62/6/4
f 20/14/4 19/13/4 28/46/4 64/47/4 65/48/4 27/49/4
f 52/50/4 49/1/4 50/29/4 66/51/4 63/52/4 51/53/4
f 8/2/1 76/54/1 75/54/1 5/2/1
f 29/2/5 77/54/5 69/54/5 21/2/5
f 19/13/6 67/55/6 78/56/6 28/46/6
f 5/2/1 75/54/1 79/54/1 9/2/1
f 9/2/5 79/54/5 77/54/5 29/2/5
f 23/2/6 73/54/6 80/54/6 31/2/6
f 27/49/5 81/57/5 71/58/5 20/14/5
f 14/2/1 82/59/1 76/54/1 8/2/1
f 32/3/6 80/54/6 82/59/6 15/3/6
f 28/60/8 78/61/9 83/62/10 64/63/11
f 27/64/8 65/65/11 84/66/12 81/67/13
f 33/30/8 88/68/8 87/69/8 34/31/8
f 60/70/8 87/69/8 88/68/8 59/71/8
f 7/72/1 90/73/1 89/74/1 6/75/1
f 41/45/1 89/76/1 90/77/1 45/6/1
f 37/34/8 91/78/8 88/68/8 33/30/8
f 59/71/8 88/68/8 91/78/8 61/79/8
f 10/2/5 92/77/5 91/77/5 37/2/5
f 61/6/5 91/77/5 92/77/5 42/6/5
f 34/31/8 87/69/8 93/80/8 40/37/8
f 62/81/8 93/80/8 87/69/8 60/70/8
f 40/2/6 93/77/6 94/77/6 13/2/6
f 48/6/6 94/77/6 93/77/6 62/6/6
f 6/12/6 89/82/6 95/83/6 67/55/6 68/84/6 67/55/6 19/13/6
f 44/41/6 95/83/6 89/82/6 41/38/6
f 92/77/5 10/2/5 21/2/5 69/54/5 70/54/5 69/54/5 96/85/5
f 42/6/5 92/77/5 96/85/5 43/6/5
f 90/86/5 7/11/5 20/14/5 71/58/5 72/87/5 71/58/5 97/88/5
f 45/89/5 90/86/5 97/88/5 46/90/5
f 13/2/6 94/77/6 98/77/6 73/54/6 74/54/6 73/54/6 23/2/6
f 47/6/6 98/77/6 94/77/6 48/6/6
f 76/54/1 100/85/1 99/77/1 75/54/1
f 52/6/1 99/77/1 100/85/1 49/6/1
f 77/54/5 101/85/5 96/85/5 69/54/5
f 43/6/5 96/85/5 101/85/5 53/6/5
f 67/55/6 95/83/6 102/91/6 78/56/6
f 51/43/6 102/91/6 95/83/6 44/41/6
f 75/54/1 99/77/1 103/77/1 79/54/1
f 54/6/1 103/77/1 99/77/1 52/6/1
f 79/54/5 103/77/5 101/85/5 77/54/5
f 53/6/5 101/85/5 103/77/5 54/6/5
f 73/54/6 98/77/6 86/92/6 80/54/6
f 55/6/6 86/92/6 98/77/6 47/6/6
f 81/57/5 104/93/5 97/88/5 71/58/5
f 46/90/5 97/88/5 104/93/5 50/94/5
f 82/59/1 85/95/1 100/85/1 76/54/1
f 49/6/1 100/85/1 85/95/1 56/6/1
f 80/54/6 86/92/6 85/95/6 82/59/6
f 57/5/6 85/95/6 86/92/6 58/5/6
f 63/96/14 105/97/15 102/98/16 51/99/14
f 50/100/8 104/101/13 106/102/17 66/103/18
f 110/104/19 119/105/20 123/106/21 122/107/22
f 119/105/20 84/108/23 120/109/24 123/106/21
f 123/106/25 120/109/26 83/110/27 121/111/28
f 122/107/29 123/106/25 121/111/28 107/112/30
f 107/112/30 121/111/28 127/113/31 126/112/32
f 121/111/28 83/110/27 124/114/33 127/113/31
f 127/113/31 124/114/33 105/110/34 125/115/35
f 126/112/32 127/113/31 125/115/35 108/112/36
f 108/112/36 125/115/35 131/106/37 130/107/38
f 125/115/35 105/110/34 128/109/39 131/106/37
f 131/106/40 128/109/41 106/108/42 129/105/43
f 130/107/44 131/106/40 129/105/43 109/104/45
f 109/104/45 129/105/43 134/116/46 133/104/47
f 129/105/43 106/108/42 132/117/48 134/116/46
f 134/116/46 132/117/48 84/108/23 119/105/20
f 133/104/47 134/116/46 119/105/20 110/104/19
f 114/104/49 135/105/50 138/106/51 137/107/52
f 135/105/50 110/117/19 122/109/22 138/106/51
f 138/106/53 122/109/29 107/114/30 136/111/54
f 137/107/55 138/106/53 136/111/54 111/112/56
f 111/112/56 136/111/54 141/113/57 140/112/58
f 136/111/54 107/114/30 126/114/32 141/113/57
f 141/113/57 126/114/32 108/114/36 139/115/59
f 140/112/58 141/113/57 139/115/59 112/112/60
f 112/112/60 139/115/59 144/106/61 143/107/62
f 139/115/59 108/114/36 130/109/38 144/106/61
f 144/106/63 130/109/44 109/117/45 142/105/64
f 143/107/65 144/106/63 142/105/64 113/104/66
f 113/104/66 142/105/64 146/116/67 145/104/68
f 142/105/64 109/117/45 133/117/47 146/116/67
f 146/116/67 133/117/47 110/117/19 135/105/50
f 145/104/68 146/116/67 135/105/50 114/104/49
f 113/118/66 145/119/68 150/120/69 149/121/70
f 145/119/68 114/122/49 147/123/71 150/120/69
f 150/120/72 147/123/73 118/124/73 148/125/72
f 149/121/74 150/120/72 148/125/75 117/126/76
f 114/122/49 137/127/52 153/128/77 147/123/71
f 137/127/55 111/129/56 151/130/78 153/128/79
f 153/128/80 151/130/81 115/131/82 152/132/83
f 147/123/84 153/128/80 152/132/83 118/124/85
f 111/129/56 140/133/58 156/134/86 151/130/78
f 140/133/58 112/135/60 154/136/87 156/134/86
f 156/134/88 154/136/89 116/137/89 155/138/88
f 151/130/81 156/134/88 155/138/90 115/131/82
f 112/135/60 143/139/62 158/140/91 154/136/87
f 143/139/65 113/118/66 149/121/70 158/140/92
f 158/140/93 149/121/74 117/126/76 157/141/94
f 154/136/95 158/140/93 157/141/94 116/137/96
f 115/131/82 155/138/97 159/142/98 152/132/83
f 155/138/97 116/137/96 157/141/94 159/142/98
f 159/142/98 157/141/94 117/126/76 148/125/99
f 152/132/83 159/142/98 148/125/99 118/124/85
f 65/65/11 64/63/11 83/62/10 120/143/100 84/66/12
f 78/61/9 102/98/16 105/97/15 124/144/101 83/62/10
f 66/103/18 106/102/17 128/145/102 105/97/15 63/96/14
f 84/66/12 132/146/103 106/102/17 104/101/13 81/67/13
